<svg version="1.1" viewBox="0.0 0.0 960.0 540.0" fill="none" stroke="none" stroke-linecap="square" stroke-miterlimit="10" xmlns:xlink="http://www.w3.org/1999/xlink" xmlns="http://www.w3.org/2000/svg"><clipPath id="g7dfdbfe8da_0_29.0"><path d="m0 0l960.0 0l0 540.0l-960.0 0l0 -540.0z" clip-rule="nonzero"/></clipPath><g clip-path="url(#g7dfdbfe8da_0_29.0)"><path fill="#ffffff" d="m0 0l960.0 0l0 540.0l-960.0 0z" fill-rule="evenodd"/><path fill="#000000" fill-opacity="0.0" d="m32.72441 46.721786l894.55115 0l0 60.125984l-894.55115 0z" fill-rule="evenodd"/><path fill="#0067d9" d="m244.01874 64.92116l0 16.71875q0 2.890625 1.3125 4.265625q1.328125 1.359375 4.171875 1.359375q3.0625 0 4.296875 -1.34375q1.234375 -1.34375 1.234375 -4.25l0 -16.75l5.84375 0l0 16.75q0 4.953125 -2.890625 7.75q-2.890625 2.78125 -8.484375 2.78125q-5.625 0 -8.5 -2.734375q-2.859375 -2.75 -2.859375 -7.796875l0 -16.75l5.875 0zm29.277374 6.828125q3.9375 0 6.078125 1.5625q2.140625 1.546875 2.4375 4.578125l-5.0625 0q-0.109375 -1.359375 -1.015625 -1.984375q-0.90625 -0.625 -2.609375 -0.625q-1.53125 0 -2.234375 0.46875q-0.703125 0.453125 -0.703125 1.328125q0 0.890625 0.921875 1.46875q0.921875 0.5625 3.71875 1.09375q4.4375 0.859375 5.953125 2.21875q1.53125 1.34375 1.53125 3.53125q0 3.28125 -2.40625 5.0q-2.390625 1.703125 -6.390625 1.703125q-4.015625 0 -6.46875 -1.703125q-2.453125 -1.703125 -2.609375 -5.09375l5.046875 0q0 1.53125 1.15625 2.390625q1.15625 0.84375 2.90625 0.84375q1.546875 0 2.515625 -0.65625q0.96875 -0.671875 0.96875 -1.796875q0 -1.0 -1.265625 -1.640625q-1.25 -0.640625 -4.609375 -1.328125q-3.3125 -0.65625 -4.796875 -1.875q-1.46875 -1.234375 -1.46875 -3.3125q0 -3.0625 2.171875 -4.609375q2.171875 -1.5625 6.234375 -1.5625zm21.049286 0q4.28125 0 6.84375 2.953125q2.5625 2.9375 2.5625 7.515625l-0.046875 0.984375l-13.921875 0q0.109375 2.484375 1.296875 3.6875q1.203125 1.203125 3.421875 1.203125q1.453125 0 2.671875 -0.734375q1.21875 -0.734375 1.546875 -1.78125l4.65625 0q-1.0625 3.28125 -3.3125 4.90625q-2.234375 1.609375 -5.71875 1.609375q-4.46875 0 -7.171875 -2.828125q-2.6875 -2.828125 -2.6875 -7.328125q0 -4.3125 2.75 -7.25q2.765625 -2.9375 7.109375 -2.9375zm-4.5625 8.09375l8.625 0q-0.375 -2.140625 -1.375 -3.125q-1.0 -0.984375 -2.875 -0.984375q-1.921875 0 -3.0625 1.09375q-1.125 1.09375 -1.3125 3.015625zm28.325134 -8.09375q0.34375 0 0.640625 0.046875q0.296875 0.046875 0.546875 0.140625l0 4.921875q-0.453125 -0.09375 -0.890625 -0.140625q-0.421875 -0.046875 -1.0 -0.046875q-2.6875 0 -3.96875 1.640625q-1.28125 1.640625 -1.28125 4.390625l0 8.859375l-5.296875 0l0 -19.296875l5.03125 0l0 3.578125l0.078125 0q0.84375 -1.890625 2.5 -2.984375q1.671875 -1.109375 3.640625 -1.109375zm33.960083 -6.828125l0 4.921875l-8.0 0l0 21.71875l-5.859375 0l0 -21.71875l-7.984375 0l0 -4.921875l21.84375 0zm7.5645447 6.828125q4.28125 0 6.84375 2.953125q2.5625 2.9375 2.5625 7.515625l-0.046875 0.984375l-13.921875 0q0.109375 2.484375 1.296875 3.6875q1.203125 1.203125 3.421875 1.203125q1.453125 0 2.671875 -0.734375q1.21875 -0.734375 1.546875 -1.78125l4.65625 0q-1.0625 3.28125 -3.3125 4.90625q-2.234375 1.609375 -5.71875 1.609375q-4.46875 0 -7.171875 -2.828125q-2.6875 -2.828125 -2.6875 -7.328125q0 -4.3125 2.75 -7.25q2.765625 -2.9375 7.109375 -2.9375zm-4.5625 8.09375l8.625 0q-0.375 -2.140625 -1.375 -3.125q-1.0 -0.984375 -2.875 -0.984375q-1.921875 0 -3.0625 1.09375q-1.125 1.09375 -1.3125 3.015625zm24.99701 -8.09375q3.9375 0 6.078125 1.5625q2.140625 1.546875 2.4375 4.578125l-5.0625 0q-0.109375 -1.359375 -1.015625 -1.984375q-0.90625 -0.625 -2.609375 -0.625q-1.53125 0 -2.234375 0.46875q-0.703125 0.453125 -0.703125 1.328125q0 0.890625 0.921875 1.46875q0.921875 0.5625 3.71875 1.09375q4.4375 0.859375 5.953125 2.21875q1.53125 1.34375 1.53125 3.53125q0 3.28125 -2.40625 5.0q-2.390625 1.703125 -6.390625 1.703125q-4.015625 0 -6.46875 -1.703125q-2.453125 -1.703125 -2.609375 -5.09375l5.046875 0q0 1.53125 1.15625 2.390625q1.15625 0.84375 2.90625 0.84375q1.546875 0 2.515625 -0.65625q0.96875 -0.671875 0.96875 -1.796875q0 -1.0 -1.265625 -1.640625q-1.25 -0.640625 -4.609375 -1.328125q-3.3125 -0.65625 -4.796875 -1.875q-1.46875 -1.234375 -1.46875 -3.3125q0 -3.0625 2.171875 -4.609375q2.171875 -1.5625 6.234375 -1.5625zm18.84613 -5.265625l0 5.78125l3.875 0l0 3.546875l-3.875 0l0 9.6875q0 1.171875 0.4375 1.640625q0.453125 0.46875 1.796875 0.46875q0.453125 0 0.875 -0.03125q0.421875 -0.046875 0.765625 -0.109375l0 4.125q-0.65625 0.109375 -1.46875 0.140625q-0.8125 0.046875 -1.59375 0.046875q-3.4375 0 -4.78125 -1.171875q-1.34375 -1.171875 -1.34375 -3.296875l0 -11.5l-3.203125 0l0 -3.546875l3.203125 0l0 -5.78125l5.3125 0zm11.875793 -1.5625l0 4.34375l-5.296875 0l0 -4.34375l5.296875 0zm0 7.34375l0 19.296875l-5.296875 0l0 -19.296875l5.296875 0zm15.248657 -0.515625q3.6875 0 5.359375 1.875q1.671875 1.859375 1.671875 5.875l0 12.0625l-5.3125 0l0 -11.0625q0 -2.265625 -0.78125 -3.421875q-0.765625 -1.15625 -2.609375 -1.15625q-2.203125 0 -3.15625 1.3125q-0.953125 1.3125 -0.953125 4.03125l0 10.296875l-5.296875 0l0 -19.296875l5.03125 0l0 2.6875l0.109375 0q0.96875 -1.546875 2.515625 -2.375q1.5625 -0.828125 3.421875 -0.828125zm18.736511 0q2.109375 0 3.484375 0.78125q1.390625 0.78125 2.265625 2.296875l0.078125 0l0 -2.5625l5.03125 0l0 18.21875q0 3.890625 -2.46875 6.140625q-2.46875 2.25 -7.5 2.25q-3.40625 0 -5.859375 -1.640625q-2.4375 -1.625 -2.671875 -4.5625l5.25 0q0.359375 1.40625 1.375 2.03125q1.03125 0.625 2.578125 0.625q2.046875 0 3.15625 -1.234375q1.109375 -1.21875 1.109375 -3.40625l0 -2.671875l-0.078125 0q-0.78125 1.421875 -2.3125 2.203125q-1.515625 0.78125 -3.484375 0.78125q-3.890625 0 -6.0625 -2.578125q-2.171875 -2.59375 -2.171875 -7.125q0 -4.078125 2.265625 -6.8125q2.265625 -2.734375 6.015625 -2.734375zm-2.984375 9.484375q0 2.703125 1.125 4.234375q1.125 1.53125 3.171875 1.53125q2.09375 0 3.296875 -1.53125q1.21875 -1.53125 1.21875 -3.828125q0 -2.8125 -1.15625 -4.359375q-1.140625 -1.546875 -3.390625 -1.546875q-1.96875 0 -3.125 1.5q-1.140625 1.5 -1.140625 4.0zm34.891205 -16.3125l0 26.640625l-5.875 0l0 -26.640625l5.875 0zm15.712006 6.828125q2.15625 0 3.546875 0.828125q1.40625 0.828125 2.078125 2.375q1.09375 -1.546875 2.59375 -2.375q1.5 -0.828125 3.265625 -0.828125q3.5 0 5.265625 1.796875q1.765625 1.78125 1.765625 4.921875l0 13.09375l-5.296875 0l0 -11.15625q0 -2.640625 -0.78125 -3.5625q-0.765625 -0.921875 -2.46875 -0.921875q-1.78125 0 -2.671875 1.203125q-0.875 1.203125 -0.875 3.515625l0 10.921875l-5.3125 0l0 -11.890625q0 -1.90625 -0.734375 -2.828125q-0.71875 -0.921875 -2.453125 -0.921875q-1.515625 0 -2.5625 1.171875q-1.03125 1.15625 -1.03125 3.15625l0 11.3125l-5.296875 0l0 -19.296875l4.984375 0l0 2.625l0.078125 0q1.125 -1.59375 2.609375 -2.359375q1.5 -0.78125 3.296875 -0.78125zm33.560394 0q4.09375 0 6.421875 2.875q2.34375 2.859375 2.34375 7.5q0 4.28125 -2.296875 7.125q-2.296875 2.84375 -6.1875 2.84375q-1.765625 0 -3.296875 -0.75q-1.53125 -0.765625 -2.46875 -2.171875l-0.09375 0l0 9.1875l-5.296875 0l0 -26.09375l5.03125 0l0 2.453125l0.078125 0q0.953125 -1.515625 2.421875 -2.234375q1.46875 -0.734375 3.34375 -0.734375zm-5.765625 10.21875q0 2.78125 1.1875 4.453125q1.1875 1.671875 3.4375 1.671875q2.21875 0 3.40625 -1.59375q1.1875 -1.609375 1.1875 -4.53125q0 -2.765625 -1.1875 -4.5q-1.171875 -1.734375 -3.46875 -1.734375q-2.1875 0 -3.375 1.640625q-1.1875 1.640625 -1.1875 4.59375zm28.942139 -10.21875q0.34375 0 0.640625 0.046875q0.296875 0.046875 0.546875 0.140625l0 4.921875q-0.453125 -0.09375 -0.890625 -0.140625q-0.421875 -0.046875 -1.0 -0.046875q-2.6875 0 -3.96875 1.640625q-1.28125 1.640625 -1.28125 4.390625l0 8.859375l-5.296875 0l0 -19.296875l5.03125 0l0 3.578125l0.078125 0q0.84375 -1.890625 2.5 -2.984375q1.671875 -1.109375 3.640625 -1.109375zm12.359985 0q4.546875 0 7.265625 2.796875q2.734375 2.796875 2.734375 7.390625q0 4.609375 -2.765625 7.390625q-2.75 2.765625 -7.234375 2.765625q-4.484375 0 -7.234375 -2.78125q-2.734375 -2.796875 -2.734375 -7.375q0 -4.578125 2.6875 -7.375q2.703125 -2.8125 7.28125 -2.8125zm-4.671875 10.1875q0 3.046875 1.25 4.609375q1.25 1.546875 3.421875 1.546875q2.265625 0 3.484375 -1.609375q1.21875 -1.609375 1.21875 -4.546875q0 -2.875 -1.1875 -4.53125q-1.1875 -1.671875 -3.546875 -1.671875q-2.140625 0 -3.390625 1.546875q-1.25 1.546875 -1.25 4.65625zm21.817139 -9.671875l4.09375 13.171875l0.0625 0l4.078125 -13.171875l5.265625 0l-6.546875 19.296875l-5.890625 0l-6.609375 -19.296875l5.546875 0zm24.61444 -0.515625q4.28125 0 6.84375 2.953125q2.5625 2.9375 2.5625 7.515625l-0.046875 0.984375l-13.921875 0q0.109375 2.484375 1.296875 3.6875q1.203125 1.203125 3.421875 1.203125q1.453125 0 2.671875 -0.734375q1.21875 -0.734375 1.546875 -1.78125l4.65625 0q-1.0625 3.28125 -3.3125 4.90625q-2.234375 1.609375 -5.71875 1.609375q-4.46875 0 -7.171875 -2.828125q-2.6875 -2.828125 -2.6875 -7.328125q0 -4.3125 2.75 -7.25q2.765625 -2.9375 7.109375 -2.9375zm-4.5625 8.09375l8.625 0q-0.375 -2.140625 -1.375 -3.125q-1.0 -0.984375 -2.875 -0.984375q-1.921875 0 -3.0625 1.09375q-1.125 1.09375 -1.3125 3.015625zm28.200134 -8.09375q2.15625 0 3.546875 0.828125q1.40625 0.828125 2.078125 2.375q1.09375 -1.546875 2.59375 -2.375q1.5 -0.828125 3.265625 -0.828125q3.5 0 5.265625 1.796875q1.765625 1.78125 1.765625 4.921875l0 13.09375l-5.296875 0l0 -11.15625q0 -2.640625 -0.78125 -3.5625q-0.765625 -0.921875 -2.46875 -0.921875q-1.78125 0 -2.671875 1.203125q-0.875 1.203125 -0.875 3.515625l0 10.921875l-5.3125 0l0 -11.890625q0 -1.90625 -0.734375 -2.828125q-0.71875 -0.921875 -2.453125 -0.921875q-1.515625 0 -2.5625 1.171875q-1.03125 1.15625 -1.03125 3.15625l0 11.3125l-5.296875 0l0 -19.296875l4.984375 0l0 2.625l0.078125 0q1.125 -1.59375 2.609375 -2.359375q1.5 -0.78125 3.296875 -0.78125zm31.6073 0q4.28125 0 6.84375 2.953125q2.5625 2.9375 2.5625 7.515625l-0.046875 0.984375l-13.921875 0q0.109375 2.484375 1.296875 3.6875q1.203125 1.203125 3.421875 1.203125q1.453125 0 2.671875 -0.734375q1.21875 -0.734375 1.546875 -1.78125l4.65625 0q-1.0625 3.28125 -3.3125 4.90625q-2.234375 1.609375 -5.71875 1.609375q-4.46875 0 -7.171875 -2.828125q-2.6875 -2.828125 -2.6875 -7.328125q0 -4.3125 2.75 -7.25q2.765625 -2.9375 7.109375 -2.9375zm-4.5625 8.09375l8.625 0q-0.375 -2.140625 -1.375 -3.125q-1.0 -0.984375 -2.875 -0.984375q-1.921875 0 -3.0625 1.09375q-1.125 1.09375 -1.3125 3.015625zm28.15326 -8.09375q3.6875 0 5.359375 1.875q1.671875 1.859375 1.671875 5.875l0 12.0625l-5.3125 0l0 -11.0625q0 -2.265625 -0.78125 -3.421875q-0.765625 -1.15625 -2.609375 -1.15625q-2.203125 0 -3.15625 1.3125q-0.953125 1.3125 -0.953125 4.03125l0 10.296875l-5.296875 0l0 -19.296875l5.03125 0l0 2.6875l0.109375 0q0.96875 -1.546875 2.515625 -2.375q1.5625 -0.828125 3.421875 -0.828125zm17.7677 -5.265625l0 5.78125l3.875 0l0 3.546875l-3.875 0l0 9.6875q0 1.171875 0.4375 1.640625q0.453125 0.46875 1.796875 0.46875q0.453125 0 0.875 -0.03125q0.421875 -0.046875 0.765625 -0.109375l0 4.125q-0.65625 0.109375 -1.46875 0.140625q-0.8125 0.046875 -1.59375 0.046875q-3.4375 0 -4.78125 -1.171875q-1.34375 -1.171875 -1.34375 -3.296875l0 -11.5l-3.203125 0l0 -3.546875l3.203125 0l0 -5.78125l5.3125 0zm14.344543 5.265625q3.9375 0 6.078125 1.5625q2.140625 1.546875 2.4375 4.578125l-5.0625 0q-0.109375 -1.359375 -1.015625 -1.984375q-0.90625 -0.625 -2.609375 -0.625q-1.53125 0 -2.234375 0.46875q-0.703125 0.453125 -0.703125 1.328125q0 0.890625 0.921875 1.46875q0.921875 0.5625 3.71875 1.09375q4.4375 0.859375 5.953125 2.21875q1.53125 1.34375 1.53125 3.53125q0 3.28125 -2.40625 5.0q-2.390625 1.703125 -6.390625 1.703125q-4.015625 0 -6.46875 -1.703125q-2.453125 -1.703125 -2.609375 -5.09375l5.046875 0q0 1.53125 1.15625 2.390625q1.15625 0.84375 2.90625 0.84375q1.546875 0 2.515625 -0.65625q0.96875 -0.671875 0.96875 -1.796875q0 -1.0 -1.265625 -1.640625q-1.25 -0.640625 -4.609375 -1.328125q-3.3125 -0.65625 -4.796875 -1.875q-1.46875 -1.234375 -1.46875 -3.3125q0 -3.0625 2.171875 -4.609375q2.171875 -1.5625 6.234375 -1.5625z" fill-rule="nonzero"/><path fill="#000000" fill-opacity="0.0" d="m32.72441 144.75328l289.00787 0l0 134.48817l-289.00787 0z" fill-rule="evenodd"/><path stroke="#0067d9" stroke-width="3.0" stroke-linejoin="round" stroke-linecap="butt" d="m32.72441 144.75328l289.00787 0l0 134.48817l-289.00787 0z" fill-rule="evenodd"/><path fill="#0067d9" d="m113.0721 161.62953q5.1875 0 7.984375 2.75q2.8125 2.75 2.8125 8.140625q0 6.03125 -2.78125 9.0q-2.765625 2.953125 -8.015625 2.953125l-8.015625 0l0 -22.84375l8.015625 0zm0.1875 20.28125q3.421875 0 5.484375 -2.234375q2.078125 -2.234375 2.078125 -6.75q0 -4.53125 -1.890625 -6.625q-1.875 -2.109375 -5.5625 -2.109375l-5.28125 0l0 17.71875l5.171875 0zm22.109375 -14.375q0.09375 0 0.171875 0q0.078125 0 0.203125 0.015625l0 2.875q-3.0625 0 -4.53125 1.625q-1.453125 1.625 -1.453125 5.015625l0 7.40625l-2.71875 0l0 -16.546875l2.5625 0l0 3.484375l0.0625 0q0.953125 -1.96875 2.34375 -2.921875q1.40625 -0.953125 3.359375 -0.953125zm8.984375 0.015625q3.75 0 5.890625 2.421875q2.140625 2.421875 2.140625 6.25q0 3.859375 -2.1875 6.25q-2.1875 2.390625 -5.84375 2.390625q-3.59375 0 -5.8125 -2.34375q-2.21875 -2.359375 -2.21875 -6.296875q0 -3.9375 2.171875 -6.296875q2.171875 -2.375 5.859375 -2.375zm-5.15625 8.671875q0 2.84375 1.453125 4.546875q1.453125 1.6875 3.703125 1.6875q2.234375 0 3.6875 -1.703125q1.46875 -1.703125 1.46875 -4.53125q0 -2.828125 -1.453125 -4.546875q-1.453125 -1.734375 -3.734375 -1.734375q-2.1875 0 -3.65625 1.703125q-1.46875 1.6875 -1.46875 4.578125zm24.546875 -8.671875q3.546875 0 5.578125 2.4375q2.046875 2.4375 2.046875 6.265625q0 3.84375 -2.03125 6.234375q-2.03125 2.375 -5.515625 2.375q-1.546875 0 -3.03125 -0.640625q-1.46875 -0.640625 -2.328125 -1.953125l-0.0625 0l0 8.546875l-2.71875 0l0 -22.890625l2.71875 0l0 2.25l0.0625 0q0.640625 -1.28125 2.015625 -1.953125q1.390625 -0.671875 3.265625 -0.671875zm-5.4375 8.640625q0 2.875 1.390625 4.578125q1.390625 1.6875 3.828125 1.6875q2.359375 0 3.65625 -1.6875q1.296875 -1.6875 1.296875 -4.703125q0 -2.671875 -1.375 -4.390625q-1.359375 -1.734375 -3.765625 -1.734375q-2.390625 0 -3.71875 1.75q-1.3125 1.75 -1.3125 4.5zm31.03125 -14.5625l0 22.84375l-2.71875 0l0 -2.234375l-0.0625 0q-0.640625 1.28125 -2.046875 1.953125q-1.390625 0.671875 -3.234375 0.671875q-3.46875 0 -5.546875 -2.40625q-2.0625 -2.40625 -2.0625 -6.296875q0 -3.828125 2.0 -6.21875q2.015625 -2.390625 5.53125 -2.390625q1.625 0 3.078125 0.65625q1.46875 0.65625 2.28125 1.921875l0.0625 0l0 -8.5l2.71875 0zm-12.796875 14.703125q0 2.671875 1.375 4.40625q1.390625 1.71875 3.75 1.71875q2.40625 0 3.71875 -1.71875q1.328125 -1.734375 1.328125 -4.515625q0 -2.828125 -1.359375 -4.546875q-1.359375 -1.734375 -3.890625 -1.734375q-2.34375 0 -3.640625 1.71875q-1.28125 1.703125 -1.28125 4.671875zm24.125 -8.78125q3.75 0 5.890625 2.421875q2.140625 2.421875 2.140625 6.25q0 3.859375 -2.1875 6.25q-2.1875 2.390625 -5.84375 2.390625q-3.59375 0 -5.8125 -2.34375q-2.21875 -2.359375 -2.21875 -6.296875q0 -3.9375 2.171875 -6.296875q2.171875 -2.375 5.859375 -2.375zm-5.15625 8.671875q0 2.84375 1.453125 4.546875q1.453125 1.6875 3.703125 1.6875q2.234375 0 3.6875 -1.703125q1.46875 -1.703125 1.46875 -4.53125q0 -2.828125 -1.453125 -4.546875q-1.453125 -1.734375 -3.734375 -1.734375q-2.1875 0 -3.65625 1.703125q-1.46875 1.6875 -1.46875 4.578125zm17.890625 -8.296875l3.75 13.53125l0.0625 0l3.328125 -13.53125l2.96875 0l3.453125 13.453125l0.03125 0.078125l0.046875 0l3.703125 -13.53125l2.828125 0l-5.265625 16.5l-0.03125 0.046875l-2.875 0l-3.34375 -13.078125l-0.03125 -0.078125l-0.046875 0l-3.328125 13.15625l-2.9375 0l-5.3125 -16.546875l3.0 0zm30.765625 -0.375q2.984375 0 4.328125 1.53125q1.359375 1.53125 1.359375 4.375l0 11.015625l-2.71875 0l0 -11.296875q0 -1.40625 -0.90625 -2.3125q-0.890625 -0.921875 -2.484375 -0.921875q-2.296875 0 -3.59375 1.421875q-1.28125 1.40625 -1.28125 3.65625l0 9.453125l-2.71875 0l0 -16.546875l2.5625 0l0 2.625l0.0625 0q0.90625 -1.546875 2.21875 -2.265625q1.328125 -0.734375 3.171875 -0.734375z" fill-rule="nonzero"/><path fill="#0067d9" d="m89.96272 199.62953l0 3.328125l-2.71875 0l0 -3.328125l2.71875 0zm0 6.296875l0 16.546875l-2.71875 0l0 -16.546875l2.71875 0zm12.25 -0.375q2.984375 0 4.328125 1.53125q1.359375 1.53125 1.359375 4.375l0 11.015625l-2.71875 0l0 -11.296875q0 -1.40625 -0.90625 -2.3125q-0.890625 -0.921875 -2.484375 -0.921875q-2.296875 0 -3.59375 1.421875q-1.28125 1.40625 -1.28125 3.65625l0 9.453125l-2.71875 0l0 -16.546875l2.5625 0l0 2.625l0.0625 0q0.90625 -1.546875 2.21875 -2.265625q1.328125 -0.734375 3.171875 -0.734375zm13.5625 -4.578125l0 4.953125l3.296875 0l0 2.40625l-3.296875 0l0 10.359375q0 1.234375 0.8125 1.3125q0.828125 0.0625 1.71875 0.0625l0.765625 0l0 2.40625l-2.25 0q-2.234375 0 -3.0 -0.796875q-0.765625 -0.796875 -0.765625 -2.671875l0 -10.671875l-2.828125 0l0 -2.40625l2.828125 0l0 -4.953125l2.71875 0zm12.78125 4.578125q3.5625 0 5.53125 2.5625q1.96875 2.5625 1.96875 6.578125l0 0.328125l-12.390625 0l0 0.203125q0 2.359375 1.375 3.796875q1.375 1.4375 3.78125 1.4375q1.8125 0 2.875 -0.84375q1.078125 -0.84375 1.40625 -2.390625l2.6875 0q-0.546875 2.75 -2.40625 4.203125q-1.859375 1.4375 -4.65625 1.4375q-2.609375 0 -4.421875 -1.171875q-1.796875 -1.1875 -2.65625 -3.28125q-0.859375 -2.109375 -0.859375 -4.3125q0 -3.65625 2.203125 -6.09375q2.203125 -2.453125 5.5625 -2.453125zm-4.890625 7.0625l9.5 0q-0.125 -2.015625 -1.46875 -3.34375q-1.328125 -1.328125 -3.328125 -1.328125q-1.875 0 -3.203125 1.265625q-1.328125 1.265625 -1.5 3.40625zm23.4375 -7.078125q0.09375 0 0.171875 0q0.078125 0 0.203125 0.015625l0 2.875q-3.0625 0 -4.53125 1.625q-1.453125 1.625 -1.453125 5.015625l0 7.40625l-2.71875 0l0 -16.546875l2.5625 0l0 3.484375l0.0625 0q0.953125 -1.96875 2.34375 -2.921875q1.40625 -0.953125 3.359375 -0.953125zm8.421875 0.015625q3.375 0 4.78125 1.203125q1.421875 1.203125 1.421875 3.21875q0 8.609375 0 9.546875q0 0.9375 0.859375 0.9375q0.1875 0 0.40625 -0.046875q0.21875 -0.046875 0.421875 -0.109375l0 2.109375q-0.375 0.21875 -0.875 0.328125q-0.484375 0.125 -1.0625 0.125q-1.125 0 -1.71875 -0.625q-0.59375 -0.640625 -0.59375 -1.9375q-1.078125 1.28125 -2.546875 1.921875q-1.46875 0.640625 -3.28125 0.640625q-2.5625 0 -4.015625 -1.203125q-1.453125 -1.21875 -1.453125 -3.4375q0 -2.234375 1.421875 -3.53125q1.421875 -1.3125 6.6875 -1.96875q1.78125 -0.234375 2.40625 -0.6875q0.640625 -0.453125 0.640625 -1.359375q0 -1.375 -0.890625 -2.046875q-0.875 -0.6875 -2.796875 -0.6875q-2.015625 0 -3.03125 0.765625q-1.0 0.765625 -1.078125 2.375l-2.71875 0q0.125 -2.75 1.9375 -4.140625q1.8125 -1.390625 5.078125 -1.390625zm-4.78125 12.46875q0 1.15625 0.84375 1.796875q0.84375 0.640625 2.359375 0.640625q2.296875 0 3.671875 -1.140625q1.375 -1.140625 1.375 -2.546875l0 -2.84375q-0.6875 0.484375 -1.78125 0.65625q-1.09375 0.171875 -2.90625 0.421875q-1.8125 0.265625 -2.6875 0.984375q-0.875 0.71875 -0.875 2.03125zm22.109375 -12.46875q3.03125 0 4.921875 1.4375q1.890625 1.4375 2.21875 4.25l-2.8125 0q-0.328125 -1.609375 -1.40625 -2.453125q-1.0625 -0.84375 -2.6875 -0.84375q-2.53125 0 -3.84375 1.703125q-1.3125 1.6875 -1.3125 4.765625q0 2.75 1.296875 4.40625q1.296875 1.640625 3.53125 1.640625q1.984375 0 3.125 -1.0625q1.15625 -1.078125 1.421875 -2.96875l2.78125 0q-0.453125 3.09375 -2.328125 4.765625q-1.875 1.671875 -4.96875 1.671875q-3.609375 0 -5.671875 -2.265625q-2.0625 -2.28125 -2.0625 -6.1875q0 -4.0625 2.078125 -6.453125q2.09375 -2.40625 5.71875 -2.40625zm14.0625 -4.578125l0 4.953125l3.296875 0l0 2.40625l-3.296875 0l0 10.359375q0 1.234375 0.8125 1.3125q0.828125 0.0625 1.71875 0.0625l0.765625 0l0 2.40625l-2.25 0q-2.234375 0 -3.0 -0.796875q-0.765625 -0.796875 -0.765625 -2.671875l0 -10.671875l-2.828125 0l0 -2.40625l2.828125 0l0 -4.953125l2.71875 0zm9.171875 -1.34375l0 3.328125l-2.71875 0l0 -3.328125l2.71875 0zm0 6.296875l0 16.546875l-2.71875 0l0 -16.546875l2.71875 0zm11.375 -0.375q3.75 0 5.890625 2.421875q2.140625 2.421875 2.140625 6.25q0 3.859375 -2.1875 6.25q-2.1875 2.390625 -5.84375 2.390625q-3.59375 0 -5.8125 -2.34375q-2.21875 -2.359375 -2.21875 -6.296875q0 -3.9375 2.171875 -6.296875q2.171875 -2.375 5.859375 -2.375zm-5.15625 8.671875q0 2.84375 1.453125 4.546875q1.453125 1.6875 3.703125 1.6875q2.234375 0 3.6875 -1.703125q1.46875 -1.703125 1.46875 -4.53125q0 -2.828125 -1.453125 -4.546875q-1.453125 -1.734375 -3.734375 -1.734375q-2.1875 0 -3.65625 1.703125q-1.46875 1.6875 -1.46875 4.578125zm24.40625 -8.671875q2.984375 0 4.328125 1.53125q1.359375 1.53125 1.359375 4.375l0 11.015625l-2.71875 0l0 -11.296875q0 -1.40625 -0.90625 -2.3125q-0.890625 -0.921875 -2.484375 -0.921875q-2.296875 0 -3.59375 1.421875q-1.28125 1.40625 -1.28125 3.65625l0 9.453125l-2.71875 0l0 -16.546875l2.5625 0l0 2.625l0.0625 0q0.90625 -1.546875 2.21875 -2.265625q1.328125 -0.734375 3.171875 -0.734375zm22.28125 -5.921875l0 22.84375l-3.03125 0l0 -22.84375l3.03125 0zm12.687485 5.921875q2.984375 0 4.328125 1.53125q1.359375 1.53125 1.359375 4.375l0 11.015625l-2.71875 0l0 -11.296875q0 -1.40625 -0.90625 -2.3125q-0.890625 -0.921875 -2.484375 -0.921875q-2.296875 0 -3.59375 1.421875q-1.28125 1.40625 -1.28125 3.65625l0 9.453125l-2.7187347 0l0 -16.546875l2.5624847 0l0 2.625l0.0625 0q0.90625 -1.546875 2.21875 -2.265625q1.328125 -0.734375 3.171875 -0.734375z" fill-rule="nonzero"/><path fill="#0067d9" d="m104.15022 237.62953l0 22.843765l-2.71875 0l0 -2.234375l-0.0625 0q-0.640625 1.28125 -2.046875 1.953125q-1.390625 0.671875 -3.234375 0.671875q-3.46875 0 -5.546875 -2.40625q-2.0625 -2.40625 -2.0625 -6.2968903q0 -3.828125 2.0 -6.21875q2.015625 -2.390625 5.53125 -2.390625q1.625 0 3.078125 0.65625q1.46875 0.65625 2.28125 1.921875l0.0625 0l0 -8.5l2.71875 0zm-12.796875 14.703125q0 2.671875 1.375 4.4062653q1.390625 1.71875 3.75 1.71875q2.40625 0 3.71875 -1.71875q1.328125 -1.7343903 1.328125 -4.5156403q0 -2.828125 -1.359375 -4.546875q-1.359375 -1.734375 -3.890625 -1.734375q-2.34375 0 -3.640625 1.71875q-1.28125 1.703125 -1.28125 4.671875zm24.125 -8.78125q3.75 0 5.890625 2.421875q2.140625 2.421875 2.140625 6.25q0 3.8593903 -2.1875 6.2500153q-2.1875 2.390625 -5.84375 2.390625q-3.59375 0 -5.8125 -2.34375q-2.21875 -2.359375 -2.21875 -6.2968903q0 -3.9375 2.171875 -6.296875q2.171875 -2.375 5.859375 -2.375zm-5.15625 8.671875q0 2.84375 1.453125 4.5468903q1.453125 1.6875 3.703125 1.6875q2.234375 0 3.6875 -1.703125q1.46875 -1.7031403 1.46875 -4.5312653q0 -2.828125 -1.453125 -4.546875q-1.453125 -1.734375 -3.734375 -1.734375q-2.1875 0 -3.65625 1.703125q-1.46875 1.6875 -1.46875 4.578125zm24.40625 -8.671875q2.984375 0 4.328125 1.53125q1.359375 1.53125 1.359375 4.375l0 11.01564l-2.71875 0l0 -11.29689q0 -1.40625 -0.90625 -2.3125q-0.890625 -0.921875 -2.484375 -0.921875q-2.296875 0 -3.59375 1.421875q-1.28125 1.40625 -1.28125 3.65625l0 9.45314l-2.71875 0l0 -16.54689l2.5625 0l0 2.625l0.0625 0q0.90625 -1.546875 2.21875 -2.265625q1.328125 -0.734375 3.171875 -0.734375zm16.546875 0q3.375 0 4.78125 1.203125q1.421875 1.203125 1.421875 3.21875q0 8.60939 0 9.54689q0 0.9375 0.859375 0.9375q0.1875 0 0.40625 -0.046875q0.21875 -0.046875 0.421875 -0.109375l0 2.109375q-0.375 0.21875 -0.875 0.328125q-0.484375 0.125 -1.0625 0.125q-1.125 0 -1.71875 -0.625q-0.59375 -0.640625 -0.59375 -1.9375q-1.078125 1.28125 -2.546875 1.921875q-1.46875 0.640625 -3.28125 0.640625q-2.5625 0 -4.015625 -1.203125q-1.453125 -1.21875 -1.453125 -3.4375q0 -2.2343903 1.421875 -3.5312653q1.421875 -1.3125 6.6875 -1.96875q1.78125 -0.234375 2.40625 -0.6875q0.640625 -0.453125 0.640625 -1.359375q0 -1.375 -0.890625 -2.046875q-0.875 -0.6875 -2.796875 -0.6875q-2.015625 0 -3.03125 0.765625q-1.0 0.765625 -1.078125 2.375l-2.71875 0q0.125 -2.75 1.9375 -4.140625q1.8125 -1.390625 5.078125 -1.390625zm-4.78125 12.468765q0 1.15625 0.84375 1.796875q0.84375 0.640625 2.359375 0.640625q2.296875 0 3.671875 -1.140625q1.375 -1.140625 1.375 -2.5468903l0 -2.84375q-0.6875 0.484375 -1.78125 0.65625q-1.09375 0.171875 -2.90625 0.421875q-1.8125 0.265625 -2.6875 0.984375q-0.875 0.71875 -0.875 2.0312653zm18.984375 -17.04689l0 4.953125l3.296875 0l0 2.40625l-3.296875 0l0 10.35939q0 1.234375 0.8125 1.3125q0.828125 0.0625 1.71875 0.0625l0.765625 0l0 2.40625l-2.25 0q-2.234375 0 -3.0 -0.796875q-0.765625 -0.796875 -0.765625 -2.671875l0 -10.67189l-2.828125 0l0 -2.40625l2.828125 0l0 -4.953125l2.71875 0zm12.78125 4.578125q3.5625 0 5.53125 2.5625q1.96875 2.5625 1.96875 6.578125l0 0.328125l-12.390625 0l0 0.203125q0 2.359375 1.375 3.7968903q1.375 1.4375 3.78125 1.4375q1.8125 0 2.875 -0.84375q1.078125 -0.84375 1.40625 -2.3906403l2.6875 0q-0.546875 2.7500153 -2.40625 4.2031403q-1.859375 1.4375 -4.65625 1.4375q-2.609375 0 -4.421875 -1.171875q-1.796875 -1.1875 -2.65625 -3.28125q-0.859375 -2.1093903 -0.859375 -4.3125153q0 -3.65625 2.203125 -6.09375q2.203125 -2.453125 5.5625 -2.453125zm-4.890625 7.0625l9.5 0q-0.125 -2.015625 -1.46875 -3.34375q-1.328125 -1.328125 -3.328125 -1.328125q-1.875 0 -3.203125 1.265625q-1.328125 1.265625 -1.5 3.40625zm32.25 -7.0625q3.546875 0 5.578125 2.4375q2.046875 2.4375 2.046875 6.265625q0 3.8437653 -2.03125 6.2343903q-2.03125 2.375 -5.515625 2.375q-1.546875 0 -3.03125 -0.640625q-1.46875 -0.640625 -2.328125 -1.953125l-0.0625 0l0 8.546875l-2.71875 0l0 -22.89064l2.71875 0l0 2.25l0.0625 0q0.640625 -1.28125 2.015625 -1.953125q1.390625 -0.671875 3.265625 -0.671875zm-5.4375 8.640625q0 2.875 1.390625 4.5781403q1.390625 1.6875 3.828125 1.6875q2.359375 0 3.65625 -1.6875q1.296875 -1.6875153 1.296875 -4.7031403q0 -2.671875 -1.375 -4.390625q-1.359375 -1.734375 -3.765625 -1.734375q-2.390625 0 -3.71875 1.75q-1.3125 1.75 -1.3125 4.5zm23.015625 -8.640625q3.375 0 4.78125 1.203125q1.421875 1.203125 1.421875 3.21875q0 8.60939 0 9.54689q0 0.9375 0.859375 0.9375q0.1875 0 0.40625 -0.046875q0.21875 -0.046875 0.421875 -0.109375l0 2.109375q-0.375 0.21875 -0.875 0.328125q-0.484375 0.125 -1.0625 0.125q-1.125 0 -1.71875 -0.625q-0.59375 -0.640625 -0.59375 -1.9375q-1.078125 1.28125 -2.546875 1.921875q-1.46875 0.640625 -3.28125 0.640625q-2.5625 0 -4.015625 -1.203125q-1.453125 -1.21875 -1.453125 -3.4375q0 -2.2343903 1.421875 -3.5312653q1.421875 -1.3125 6.6875 -1.96875q1.78125 -0.234375 2.40625 -0.6875q0.640625 -0.453125 0.640625 -1.359375q0 -1.375 -0.890625 -2.046875q-0.875 -0.6875 -2.796875 -0.6875q-2.015625 0 -3.03125 0.765625q-1.0 0.765625 -1.078125 2.375l-2.71875 0q0.125 -2.75 1.9375 -4.140625q1.8125 -1.390625 5.078125 -1.390625zm-4.78125 12.468765q0 1.15625 0.84375 1.796875q0.84375 0.640625 2.359375 0.640625q2.296875 0 3.671875 -1.140625q1.375 -1.140625 1.375 -2.5468903l0 -2.84375q-0.6875 0.484375 -1.78125 0.65625q-1.09375 0.171875 -2.90625 0.421875q-1.8125 0.265625 -2.6875 0.984375q-0.875 0.71875 -0.875 2.0312653zm21.9375 -12.468765q1.734375 0 3.0 0.75q1.265625 0.75 1.953125 2.0l0.03125 0l0 -2.375l2.546875 0l0 15.312515q0 3.890625 -1.875 5.921875q-1.875 2.03125 -5.78125 2.03125q-2.84375 0 -4.796875 -1.25q-1.9375 -1.25 -2.0625 -3.609375l2.71875 0q0.0625 1.265625 1.34375 1.96875q1.296875 0.71875 2.9375 0.71875q2.40625 0 3.6875 -1.59375q1.28125 -1.59375 1.28125 -4.734375l0 -1.03125l-0.0625 0q-0.640625 1.375 -2.03125 2.1875q-1.375 0.8125 -3.140625 0.8125q-3.359375 0 -5.375 -2.3125q-2.0 -2.3125 -2.0 -6.0625153q0 -3.796875 2.0 -6.265625q2.015625 -2.46875 5.625 -2.46875zm-4.75 8.40625q0 2.953125 1.234375 4.6406403q1.234375 1.671875 3.4375 1.671875q2.25 0 3.578125 -1.734375q1.34375 -1.7500153 1.34375 -4.6718903q0 -2.65625 -1.234375 -4.28125q-1.234375 -1.640625 -3.5 -1.640625q-2.28125 0 -3.578125 1.640625q-1.28125 1.640625 -1.28125 4.375zm23.26561 -8.40625q3.5625 0 5.53125 2.5625q1.96875 2.5625 1.96875 6.578125l0 0.328125l-12.39061 0l0 0.203125q0 2.359375 1.375 3.7968903q1.3749847 1.4375 3.7812347 1.4375q1.8125 0 2.875 -0.84375q1.078125 -0.84375 1.40625 -2.3906403l2.6875 0q-0.546875 2.7500153 -2.40625 4.2031403q-1.859375 1.4375 -4.65625 1.4375q-2.609375 0 -4.4218597 -1.171875q-1.796875 -1.1875 -2.65625 -3.28125q-0.859375 -2.1093903 -0.859375 -4.3125153q0 -3.65625 2.203125 -6.09375q2.203125 -2.453125 5.5624847 -2.453125zm-4.8906097 7.0625l9.499985 0q-0.125 -2.015625 -1.46875 -3.34375q-1.328125 -1.328125 -3.328125 -1.328125q-1.875 0 -3.2031097 1.265625q-1.328125 1.265625 -1.5 3.40625z" fill-rule="nonzero"/><path fill="#000000" fill-opacity="0.0" d="m372.63516 126.95538l480.00003 0l0 360.0l-480.00003 0z" fill-rule="evenodd"/><path fill="#000000" d="m372.63516 126.95538l480.00003 0l0 360.0l-480.00003 0z" fill-rule="evenodd"/><a xlink:href="https://www.google.com/url?q=https://docs.google.com/file/d/1i2wAvvwsU3Ie8aPY0QboTDxP5EKcOCL8/preview&amp;sa=D&amp;ust=1581572921007000&amp;usg=AFQjCNGxecNva0S2RBsfPGWnwKH73vFwMw" target="_blank" rel="noreferrer"><path fill="transparent" fill-opacity="0" d="m372.63516 126.95538l480.00003 0l0 360.0l-480.00003 0z" fill-rule="evenodd"/></a></g></svg>